<?xml version="1.0" standalone="no"?>
<!DOCTYPE svg PUBLIC "-//W3C//DTD SVG 20010904//EN"
 "http://www.w3.org/TR/2001/REC-SVG-20010904/DTD/svg10.dtd">
<svg version="1.0" xmlns="http://www.w3.org/2000/svg"
 width="123.000000pt" height="123.000000pt" viewBox="0 0 123.000000 123.000000"
 preserveAspectRatio="xMidYMid meet">
<metadata>
Created by potrace 1.11, written by Peter Selinger 2001-2013
</metadata>
<g transform="translate(0.000000,123.000000) scale(0.100000,-0.100000)"
fill="#000000" stroke="none">
<path d="M522 1006 c-55 -110 -100 -187 -110 -190 -9 -3 -53 -10 -97 -16 -44
-6 -91 -12 -105 -15 -14 -2 -63 -9 -110 -15 -47 -7 -86 -13 -87 -14 -1 -1 64
-68 146 -150 l148 -147 -14 -77 c-29 -161 -54 -298 -59 -320 -4 -21 15 -13
180 72 101 53 189 96 194 96 6 0 90 -43 187 -95 98 -53 179 -94 182 -92 2 3
-1 33 -6 68 -6 35 -13 82 -16 104 -3 22 -8 51 -11 65 -2 14 -7 36 -9 50 -3 14
-8 45 -11 70 -3 25 -7 46 -9 48 -2 3 79 82 245 240 36 34 61 62 55 62 -5 0
-50 7 -100 15 -49 8 -112 17 -140 21 -27 3 -57 8 -67 9 -9 2 -36 7 -61 10
l-45 7 -91 189 c-50 104 -92 189 -94 189 -1 0 -44 -83 -95 -184z m173 -90 l74
-153 88 -12 c48 -6 97 -13 108 -15 11 -2 46 -7 78 -11 31 -4 57 -11 57 -15 0
-4 -54 -59 -121 -123 l-120 -116 10 -58 c6 -32 13 -76 17 -98 3 -22 12 -73 19
-112 6 -40 11 -73 10 -73 -1 0 -68 36 -150 80 -82 44 -152 80 -156 80 -4 0
-73 -34 -154 -76 -81 -42 -148 -74 -150 -72 -2 2 0 21 5 43 4 22 11 58 14 80
3 22 8 51 11 65 9 44 25 133 25 140 0 4 -54 60 -120 126 -133 131 -132 127
-29 139 30 3 65 8 79 10 14 2 45 7 70 10 60 8 104 16 105 18 1 11 146 297 150
297 3 0 39 -69 80 -154z"/>
</g>
</svg>
